<svg id="Layer_1" data-name="Layer 1" xmlns="http://www.w3.org/2000/svg" viewBox="0 0 307.52 327.64"><defs><style>.cls-1{fill:#343e40;}.cls-2,.cls-4{fill:#fff;}.cls-3{fill:#ed1850;}.cls-4{fill-rule:evenodd;}</style></defs><title>logo_full_final</title><path class="cls-1" d="M304.65,118,220,69.16a15.68,15.68,0,0,0-15.68,0L119.63,118a15.7,15.7,0,0,0-7.84,13.58v97.76A15.7,15.7,0,0,0,119.63,243l84.66,48.88a15.68,15.68,0,0,0,15.68,0L304.65,243a15.71,15.71,0,0,0,7.83-13.59V131.62A15.71,15.71,0,0,0,304.65,118Z" transform="translate(-57.95 -67.06)"/><polygon class="cls-2" points="154.18 23.61 76.38 68.53 76.38 158.36 154.18 203.28 231.99 158.36 231.99 68.53 154.18 23.61"/><path class="cls-2" d="M212.14,284.75a14.49,14.49,0,0,1-7.21-1.93l-77.8-44.92a14.4,14.4,0,0,1-7.2-12.48V135.59a14.41,14.41,0,0,1,7.2-12.48l77.8-44.92a14.36,14.36,0,0,1,14.4,0l77.8,44.92a14.4,14.4,0,0,1,7.21,12.48v89.83a14.38,14.38,0,0,1-7.21,12.48l-77.8,44.92A14.41,14.41,0,0,1,212.14,284.75Zm-63.4-67.65,63.4,36.6,63.39-36.6V143.9l-63.39-36.59-63.4,36.59Z" transform="translate(-57.95 -67.06)"/><path class="cls-3" d="M285.76,131.21,218.94,92.63a12.37,12.37,0,0,0-12.37,0l-66.82,38.58a12.37,12.37,0,0,0-6.19,10.72v77.15a12.38,12.38,0,0,0,6.19,10.72l66.82,38.58a12.42,12.42,0,0,0,12.37,0l66.82-38.58a12.37,12.37,0,0,0,6.18-10.72V141.93A12.36,12.36,0,0,0,285.76,131.21Z" transform="translate(-57.95 -67.06)"/><path class="cls-4" d="M230.51,233.08c-7.82-10.2-2.54-14.86-17.9-20.16-7.36-2.53-11.72-1.15-14.4-4.69-2.51-2.95-4.74-8.68-6.18-14.08-6.92-.51-9.14,15.09-10.18,24.81-4,3.61-7.27,5.16-14.7,14.84-.57.74-5.15,7.61-6.19,9.08l8.1,10.67L207.84,269c-4-3.27-3.9-7.27,4.55-10.42,15.47-5.76,17.63-2.63,24.19-15C238.72,239.56,233.11,236.47,230.51,233.08Zm-14.57-1.87a2.83,2.83,0,1,1,2.82-2.84A2.84,2.84,0,0,1,215.94,231.21Z" transform="translate(-57.95 -67.06)"/><path class="cls-4" d="M160.63,163.76c6.34,5.11,20.79,13.88,30.62,7,7.62-6.59-11.75-40.43-16.2-46.09-7.74,3.59-15.42,13.45-17.77,24.52C156,155.78,155,158.8,160.63,163.76Z" transform="translate(-57.95 -67.06)"/><path class="cls-4" d="M241.4,140.28c-1-.06-2.14-.13-3.39-.23-13.12-1.07-21.56-7.66-26.88-12.08a30.1,30.1,0,0,0-5.69-4l-.56-.18c-6.89-2.25-14.61-3.51-22.33-2,1.95,2.46,9.21,16.32,11.28,21.2,8.09,19,14.73,40.48-16.13,36.47-12.23-1.58-15.61-6.34-22.87-11.26-.14,19.26-3.06,20.18-22.51,41.87l1.24,22,22.05,7.71a92,92,0,0,1,6.26-10.21c6.14-9.08,13.56-13.17,14.28-15.95.27-1.05,2.06-28,16.65-26.75,4.75.7,5.36,7.26,7.2,11.72,2.43,5.92,4.64,7,10.09,6.78,1.1-13.06,1-17.67,2.61-20.21,2-3.19,6.42-2.11,18.64-7.1,10.85-4.43,20.86-13.85,21.53-28.16C253.16,143.83,248.34,141.82,241.4,140.28Zm-28.28,8a2.84,2.84,0,1,1,2.82-2.85A2.83,2.83,0,0,1,213.12,148.24Z" transform="translate(-57.95 -67.06)"/><path class="cls-1" d="M280.43,108.64,302.48,95.7c4.42,3.62,10,4.77,16,1.31s9.07-12.54,5.17-19.29-13.3-8.63-19.29-5.17-7.8,8.87-6.88,14.5l-26.94,16S281.69,109.52,280.43,108.64Zm27.44-30a7.12,7.12,0,1,1-2.61,9.73A7.11,7.11,0,0,1,307.87,78.61Z" transform="translate(-57.95 -67.06)"/><path class="cls-1" d="M337.19,129.41a13.29,13.29,0,0,0-6.87,14.49l-19.81,11.68a53.42,53.42,0,0,1-6.32,3.26l5.26,8.74,25.86-15c4.42,3.62,10,4.76,16,1.3s9.06-12.53,5.16-19.29S343.18,126,337.19,129.41Zm10.63,18.39a7.13,7.13,0,1,1,2.61-9.73A7.14,7.14,0,0,1,347.82,147.8Z" transform="translate(-57.95 -67.06)"/><path class="cls-1" d="M363.74,91.92c-3.9-6.75-13.3-8.62-19.29-5.16s-7.79,8.87-6.88,14.49l-38.08,22.57c-.86-1.22,11.1,5.47,10.74,4.76l32.33-18.67c4.42,3.61,10,4.76,16,1.3S367.64,98.68,363.74,91.92Zm-8.67,13.23a7.13,7.13,0,1,1,2.61-9.73A7.13,7.13,0,0,1,355.07,105.15Z" transform="translate(-57.95 -67.06)"/><path class="cls-1" d="M142.92,254.58,121,267.7c-4.44-3.58-10.06-4.69-16-1.18s-9,12.61-5,19.33,13.36,8.52,19.32,5A13.31,13.31,0,0,0,126,276.31l26.81-16.16S141.65,253.71,142.92,254.58Zm-27.2,30.25a7.12,7.12,0,1,1,2.53-9.75A7.12,7.12,0,0,1,115.72,284.83Z" transform="translate(-57.95 -67.06)"/><path class="cls-1" d="M86,234.27c6-3.5,7.72-8.94,6.76-14.55l19.71-11.83a54.34,54.34,0,0,1,6.3-3.32l-5.33-8.69L87.68,211.1c-4.44-3.58-10.05-4.68-16-1.17s-9,12.6-5,19.33S80,237.77,86,234.27ZM75.21,216a7.13,7.13,0,1,1-2.53,9.76A7.14,7.14,0,0,1,75.21,216Z" transform="translate(-57.95 -67.06)"/><path class="cls-1" d="M59.75,272c4,6.72,13.36,8.51,19.32,5s7.72-8.93,6.76-14.55l37.9-22.87c.87,1.21-11.14-5.39-10.77-4.68L80.77,253.81c-4.45-3.57-10-4.68-16-1.17S55.79,265.25,59.75,272Zm8.55-13.3a7.13,7.13,0,1,1-2.53,9.75A7.14,7.14,0,0,1,68.3,258.67Z" transform="translate(-57.95 -67.06)"/><path class="cls-1" d="M130.9,320.54a18.21,18.21,0,0,1,6.91,1.18,12.87,12.87,0,0,1,4.64,3.13,12,12,0,0,1,2.61,4.43,16.19,16.19,0,0,1,.82,5.15,16.38,16.38,0,0,1-.82,5.13,11.77,11.77,0,0,1-2.61,4.45,12.87,12.87,0,0,1-4.64,3.13,18,18,0,0,1-6.91,1.19h-10v15.53h-9.53V320.54Zm-2.61,20.39a20.1,20.1,0,0,0,3.15-.25,7.18,7.18,0,0,0,2.67-.94,5,5,0,0,0,1.85-2,8.29,8.29,0,0,0,0-6.67,5.13,5.13,0,0,0-1.85-2,7.35,7.35,0,0,0-2.67-.93,19,19,0,0,0-3.15-.25h-7.4v13Z" transform="translate(-57.95 -67.06)"/><path class="cls-1" d="M157.72,356.34a8.85,8.85,0,0,0,10.06.57,5.39,5.39,0,0,0,2.31-2.76h7.58q-1.81,5.64-5.58,8.07a16.42,16.42,0,0,1-9.1,2.43,17.74,17.74,0,0,1-6.68-1.19,14,14,0,0,1-5-3.36,15.17,15.17,0,0,1-3.18-5.22,19.06,19.06,0,0,1-1.13-6.67,18.1,18.1,0,0,1,1.16-6.56,15.39,15.39,0,0,1,3.27-5.25,15.74,15.74,0,0,1,5.07-3.48,16.24,16.24,0,0,1,6.52-1.27,14.84,14.84,0,0,1,7,1.54,14,14,0,0,1,4.88,4.16,17.15,17.15,0,0,1,2.76,5.94,22.41,22.41,0,0,1,.61,7H155.59Q155.77,354.46,157.72,356.34Zm9.73-16.51a6.07,6.07,0,0,0-4.7-1.69,7.61,7.61,0,0,0-3.44.69,6.44,6.44,0,0,0-2.17,1.73,6.33,6.33,0,0,0-1.16,2.18,8.85,8.85,0,0,0-.39,2.07h14A9.87,9.87,0,0,0,167.45,339.83Z" transform="translate(-57.95 -67.06)"/><path class="cls-1" d="M200.55,332.49v5.77h-6.31v15.53a2.9,2.9,0,0,0,3.63,3.63,12.57,12.57,0,0,0,1.4-.06,10.66,10.66,0,0,0,1.28-.18v6.68a21,21,0,0,1-2.44.24q-1.32.06-2.61.06a25.51,25.51,0,0,1-3.79-.27,9.22,9.22,0,0,1-3.15-1.06,5.59,5.59,0,0,1-2.15-2.24,8,8,0,0,1-.79-3.83v-18.5H180.4v-5.77h5.22v-9.41h8.62v9.41Z" transform="translate(-57.95 -67.06)"/><path class="cls-1" d="M230.15,320.54a14.11,14.11,0,0,1,5.25.94,12.15,12.15,0,0,1,4,2.58,11.19,11.19,0,0,1,2.56,3.79,12.32,12.32,0,0,1,.88,4.64,13.09,13.09,0,0,1-1.61,6.62,10.06,10.06,0,0,1-5.26,4.24v.13a7.13,7.13,0,0,1,2.92,1.48,8.24,8.24,0,0,1,1.89,2.37,10.7,10.7,0,0,1,1,3,24.79,24.79,0,0,1,.46,3.29c0,.69.08,1.5.12,2.42s.11,1.88.22,2.85a17.82,17.82,0,0,0,.48,2.76,6.47,6.47,0,0,0,1,2.22h-9.53a17.29,17.29,0,0,1-1-4.92c-.11-1.9-.3-3.72-.54-5.45a8.72,8.72,0,0,0-2.06-5c-1.06-1-2.77-1.57-5.16-1.57h-9.52v16.93h-9.53V320.54Zm-3.4,19.6a7.25,7.25,0,0,0,4.91-1.45q1.64-1.47,1.64-4.74c0-2.11-.55-3.63-1.64-4.58a7.3,7.3,0,0,0-4.91-1.43H216.32v12.2Z" transform="translate(-57.95 -67.06)"/><path class="cls-1" d="M257.69,356.34a8.86,8.86,0,0,0,10.07.57,5.39,5.39,0,0,0,2.31-2.76h7.58q-1.81,5.64-5.58,8.07a16.43,16.43,0,0,1-9.11,2.43,17.69,17.69,0,0,1-6.67-1.19,13.9,13.9,0,0,1-5-3.36,15.19,15.19,0,0,1-3.19-5.22,19.05,19.05,0,0,1-1.11-6.67,18.31,18.31,0,0,1,1.14-6.56,15.15,15.15,0,0,1,8.34-8.73,16.24,16.24,0,0,1,6.52-1.27,14.81,14.81,0,0,1,7,1.54,14,14,0,0,1,4.88,4.16,16.81,16.81,0,0,1,2.77,5.94,22.11,22.11,0,0,1,.6,7H255.56C255.69,353.06,256.39,355.08,257.69,356.34Zm9.73-16.51a6,6,0,0,0-4.7-1.69,7.59,7.59,0,0,0-3.43.69,6.69,6.69,0,0,0-2.18,1.73,6.47,6.47,0,0,0-1.15,2.18,10.83,10.83,0,0,0-.4,2.07h14A10,10,0,0,0,267.42,339.83Z" transform="translate(-57.95 -67.06)"/><path class="cls-1" d="M298.73,361.76a12.86,12.86,0,0,1-5.43,1.18,13.73,13.73,0,0,1-6.07-1.23,11.63,11.63,0,0,1-4.18-3.41,14.23,14.23,0,0,1-2.4-5,23.66,23.66,0,0,1-.76-6.1,19.79,19.79,0,0,1,.88-5.85,15.35,15.35,0,0,1,2.58-5,12.4,12.4,0,0,1,4.22-3.43,12.62,12.62,0,0,1,5.79-1.27,12.12,12.12,0,0,1,5.43,1.14,9.44,9.44,0,0,1,3.92,3.89h.11v-4.19H311v29.36a21.14,21.14,0,0,1-.51,4.31,10.58,10.58,0,0,1-2.22,4.52,13.13,13.13,0,0,1-4.91,3.55,21,21,0,0,1-8.61,1.46,20.36,20.36,0,0,1-4.71-.58,15.05,15.05,0,0,1-4.36-1.79,10.74,10.74,0,0,1-3.28-3.12,9.09,9.09,0,0,1-1.49-4.58h8.55a4.93,4.93,0,0,0,2.37,3.36,8.49,8.49,0,0,0,4.07.94c2.43,0,4.19-.72,5.31-2.18a8.55,8.55,0,0,0,1.6-5.52v-4.13h-.11a8.48,8.48,0,0,1-4,3.67m0-6a6.68,6.68,0,0,0,2.3-1.94,8.26,8.26,0,0,0,1.37-2.77,11.43,11.43,0,0,0,.45-3.24,17.38,17.38,0,0,0-.36-3.67,9.16,9.16,0,0,0-1.21-3.06,6.44,6.44,0,0,0-2.24-2.13,7.19,7.19,0,0,0-3.52-.78,6.27,6.27,0,0,0-3.13.72,6.55,6.55,0,0,0-2.19,2,8.59,8.59,0,0,0-1.27,2.85,14.41,14.41,0,0,0-.39,3.38,16.5,16.5,0,0,0,.33,3.36,9.32,9.32,0,0,0,1.15,3,6.68,6.68,0,0,0,2.16,2.17,6,6,0,0,0,3.34.85A6.81,6.81,0,0,0,298.7,355.73Z" transform="translate(-57.95 -67.06)"/><path class="cls-1" d="M318.17,327.64v-7.1h8.62v7.1Zm8.62,4.85v31.37h-8.62V332.49Z" transform="translate(-57.95 -67.06)"/><path class="cls-1" d="M113.85,384l3.32,8.82,3.31-8.82h1.92v10.49h-1.33v-8.73h0l-3.28,8.73h-1.19l-3.27-8.73h0v8.73H112V384Z" transform="translate(-57.95 -67.06)"/><path class="cls-1" d="M128.53,384v10.49h-1.41V384Z" transform="translate(-57.95 -67.06)"/><path class="cls-1" d="M138.48,385.4a3,3,0,0,0-1.79-.51,4.92,4.92,0,0,0-.86.09,2.66,2.66,0,0,0-.76.29,1.74,1.74,0,0,0-.53.55,1.8,1.8,0,0,0-.2.87,1.07,1.07,0,0,0,.29.78,2.1,2.1,0,0,0,.77.5,5.56,5.56,0,0,0,1.08.31c.4.09.81.17,1.22.28a12.38,12.38,0,0,1,1.23.34,4,4,0,0,1,1.09.54,2.47,2.47,0,0,1,.75.85,2.51,2.51,0,0,1,.29,1.29,2.66,2.66,0,0,1-.37,1.44,3.07,3.07,0,0,1-1,1,3.83,3.83,0,0,1-1.31.55,6.55,6.55,0,0,1-1.44.16,5.92,5.92,0,0,1-1.67-.21,4,4,0,0,1-1.38-.67,3,3,0,0,1-.95-1.15,3.58,3.58,0,0,1-.35-1.65H134a2.22,2.22,0,0,0,.26,1.13,2.28,2.28,0,0,0,.67.8,3,3,0,0,0,1,.45,4.41,4.41,0,0,0,1.14.15,5.09,5.09,0,0,0,.95-.09,2.59,2.59,0,0,0,.86-.31,1.59,1.59,0,0,0,.86-1.51,1.23,1.23,0,0,0-.29-.88,1.93,1.93,0,0,0-.77-.55,4.89,4.89,0,0,0-1.08-.35l-1.23-.27q-.62-.15-1.23-.33a4.35,4.35,0,0,1-1.07-.48,2.36,2.36,0,0,1-.76-.78,2.23,2.23,0,0,1-.3-1.2,2.87,2.87,0,0,1,.33-1.38,3,3,0,0,1,.86-1,4.1,4.1,0,0,1,1.22-.55,5.77,5.77,0,0,1,2.9,0,3.05,3.05,0,0,1,1.22.61,2.75,2.75,0,0,1,.82,1,3.77,3.77,0,0,1,.33,1.5H139.3A2.19,2.19,0,0,0,138.48,385.4Z" transform="translate(-57.95 -67.06)"/><path class="cls-1" d="M150.36,385.4a3,3,0,0,0-1.79-.51,4.82,4.82,0,0,0-.86.09,2.45,2.45,0,0,0-.76.29,1.64,1.64,0,0,0-.53.55,1.8,1.8,0,0,0-.2.87,1.07,1.07,0,0,0,.29.78,2.19,2.19,0,0,0,.77.5,5.66,5.66,0,0,0,1.07.31c.41.09.81.17,1.23.28s.82.21,1.23.34a3.9,3.9,0,0,1,1.08.54,2.4,2.4,0,0,1,.76.85,2.51,2.51,0,0,1,.29,1.29,2.66,2.66,0,0,1-.38,1.44,3.14,3.14,0,0,1-1,1,3.92,3.92,0,0,1-1.31.55,6.6,6.6,0,0,1-1.46.16,6,6,0,0,1-1.66-.21,4.22,4.22,0,0,1-1.38-.67,3.24,3.24,0,0,1-.95-1.15,3.71,3.71,0,0,1-.34-1.65h1.32a2.33,2.33,0,0,0,.26,1.13,2.42,2.42,0,0,0,.68.8,3,3,0,0,0,1,.45,4.35,4.35,0,0,0,1.14.15,5.09,5.09,0,0,0,1-.09,2.67,2.67,0,0,0,.86-.31,1.7,1.7,0,0,0,.62-.57,1.79,1.79,0,0,0,.23-.94,1.27,1.27,0,0,0-.28-.88,2,2,0,0,0-.77-.55,5.26,5.26,0,0,0-1.08-.35l-1.22-.27q-.65-.15-1.23-.33a4.43,4.43,0,0,1-1.08-.48,2.18,2.18,0,0,1-1.06-2,2.76,2.76,0,0,1,.33-1.38,2.92,2.92,0,0,1,.86-1,3.89,3.89,0,0,1,1.22-.55,5.77,5.77,0,0,1,2.9,0,3,3,0,0,1,1.21.61,2.87,2.87,0,0,1,.83,1,4,4,0,0,1,.33,1.5h-1.32A2.23,2.23,0,0,0,150.36,385.4Z" transform="translate(-57.95 -67.06)"/><path class="cls-1" d="M158.43,384v10.49H157V384Z" transform="translate(-57.95 -67.06)"/><path class="cls-1" d="M162.87,387.15a5,5,0,0,1,.95-1.75,4.53,4.53,0,0,1,1.57-1.22,5.44,5.44,0,0,1,4.38,0,4.53,4.53,0,0,1,1.57,1.22,4.87,4.87,0,0,1,.95,1.75,6.82,6.82,0,0,1,0,4.13,5.17,5.17,0,0,1-.95,1.76,4.62,4.62,0,0,1-1.57,1.21,5.67,5.67,0,0,1-4.38,0,4.62,4.62,0,0,1-1.57-1.21,5.35,5.35,0,0,1-.95-1.76,6.82,6.82,0,0,1,0-4.13Zm1.29,3.63a4.21,4.21,0,0,0,.64,1.39,3.27,3.27,0,0,0,2.77,1.37,3.41,3.41,0,0,0,1.65-.38,3.31,3.31,0,0,0,1.14-1,4.42,4.42,0,0,0,.64-1.39,5.94,5.94,0,0,0,0-3.13,4.42,4.42,0,0,0-.64-1.39,3.31,3.31,0,0,0-1.14-1,3.75,3.75,0,0,0-3.29,0,3.37,3.37,0,0,0-1.13,1,4.21,4.21,0,0,0-.64,1.39,5.94,5.94,0,0,0,0,3.13Z" transform="translate(-57.95 -67.06)"/><path class="cls-1" d="M178.13,384l5.53,8.51h0V384H185v10.49h-1.53L178,386h0v8.42h-1.32V384Z" transform="translate(-57.95 -67.06)"/><path class="cls-1" d="M195,385.15V384h8.39v1.18h-3.5v9.31h-1.4v-9.31Z" transform="translate(-57.95 -67.06)"/><path class="cls-1" d="M206.58,387.15a5,5,0,0,1,.94-1.75,4.76,4.76,0,0,1,1.58-1.22,4.92,4.92,0,0,1,2.2-.46,4.86,4.86,0,0,1,2.18.46,4.53,4.53,0,0,1,1.57,1.22,5.21,5.21,0,0,1,1,1.75,7,7,0,0,1,0,4.13,5.57,5.57,0,0,1-1,1.76,4.62,4.62,0,0,1-1.57,1.21,5,5,0,0,1-2.18.44,5.05,5.05,0,0,1-2.2-.44,4.86,4.86,0,0,1-1.58-1.21,5.33,5.33,0,0,1-.94-1.76,6.82,6.82,0,0,1,0-4.13Zm1.29,3.63a4.21,4.21,0,0,0,.64,1.39,3.28,3.28,0,0,0,2.79,1.37,3.36,3.36,0,0,0,1.63-.38,3.11,3.11,0,0,0,1.13-1,4.25,4.25,0,0,0,.66-1.39,6.22,6.22,0,0,0,0-3.13,4.25,4.25,0,0,0-.66-1.39,3.11,3.11,0,0,0-1.13-1,3.36,3.36,0,0,0-1.63-.38,3.28,3.28,0,0,0-2.79,1.37,4.21,4.21,0,0,0-.64,1.39,5.68,5.68,0,0,0,0,3.13Z" transform="translate(-57.95 -67.06)"/><path class="cls-1" d="M232.07,385.4a3,3,0,0,0-1.79-.51,4.92,4.92,0,0,0-.86.09,2.45,2.45,0,0,0-.76.29,1.64,1.64,0,0,0-.53.55,1.8,1.8,0,0,0-.2.87,1,1,0,0,0,.29.78,2.14,2.14,0,0,0,.76.5,6,6,0,0,0,1.08.31c.4.09.81.17,1.23.28a12.38,12.38,0,0,1,1.23.34,3.84,3.84,0,0,1,1.07.54,2.33,2.33,0,0,1,.77.85,2.62,2.62,0,0,1,.29,1.29,2.66,2.66,0,0,1-.38,1.44,3.22,3.22,0,0,1-1,1,4.15,4.15,0,0,1-1.32.55,6.66,6.66,0,0,1-1.46.16,6,6,0,0,1-1.66-.21,4.13,4.13,0,0,1-1.38-.67,3.14,3.14,0,0,1-.95-1.15,3.71,3.71,0,0,1-.34-1.65h1.33a2.33,2.33,0,0,0,.25,1.13,2.42,2.42,0,0,0,.68.8,3,3,0,0,0,1,.45,4.48,4.48,0,0,0,1.15.15,5.17,5.17,0,0,0,.95-.09,2.67,2.67,0,0,0,.86-.31,1.56,1.56,0,0,0,.85-1.51,1.23,1.23,0,0,0-.29-.88,1.83,1.83,0,0,0-.76-.55,5.17,5.17,0,0,0-1.09-.35l-1.21-.27c-.43-.1-.84-.21-1.24-.33a4.79,4.79,0,0,1-1.08-.48,2.33,2.33,0,0,1-.75-.78,2.22,2.22,0,0,1-.29-1.2,2.76,2.76,0,0,1,.32-1.38,2.92,2.92,0,0,1,.86-1,4,4,0,0,1,1.22-.55,5.43,5.43,0,0,1,1.4-.18,5.5,5.5,0,0,1,1.5.19,3.12,3.12,0,0,1,1.22.61,2.72,2.72,0,0,1,.81,1,3.6,3.6,0,0,1,.34,1.5h-1.32A2.26,2.26,0,0,0,232.07,385.4Z" transform="translate(-57.95 -67.06)"/><path class="cls-1" d="M243.09,384l4.1,10.49h-1.54l-1.15-3.16h-4.44l-1.18,3.16h-1.42L241.54,384Zm1,6.16-1.75-4.9h0l-1.78,4.9Z" transform="translate(-57.95 -67.06)"/><path class="cls-1" d="M252.43,394.46,248.75,384h1.5l3,9.1h0l3-9.1h1.45L254,394.46Z" transform="translate(-57.95 -67.06)"/><path class="cls-1" d="M268.47,384v1.18h-5.85v3.33h5.45v1.18h-5.45v3.62h5.89v1.18h-7.29V384Z" transform="translate(-57.95 -67.06)"/><path class="cls-1" d="M280.39,384v9.31h5.55v1.18H279V384Z" transform="translate(-57.95 -67.06)"/><path class="cls-1" d="M291,384v10.49h-1.4V384Z" transform="translate(-57.95 -67.06)"/><path class="cls-1" d="M298.22,394.46,294.53,384H296l3,9.1h0l3-9.1h1.45l-3.73,10.49Z" transform="translate(-57.95 -67.06)"/><path class="cls-1" d="M314.26,384v1.18H308.4v3.33h5.45v1.18H308.4v3.62h5.89v1.18H307V384Z" transform="translate(-57.95 -67.06)"/><path class="cls-1" d="M323.59,385.4a3,3,0,0,0-1.78-.51,4.93,4.93,0,0,0-.87.09,2.45,2.45,0,0,0-.76.29,1.64,1.64,0,0,0-.53.55,1.8,1.8,0,0,0-.2.87,1.07,1.07,0,0,0,.29.78,2.19,2.19,0,0,0,.77.5,5.89,5.89,0,0,0,1.07.31c.41.09.82.17,1.23.28a12.38,12.38,0,0,1,1.23.34,3.9,3.9,0,0,1,1.08.54,2.4,2.4,0,0,1,.76.85,2.62,2.62,0,0,1,.29,1.29,2.66,2.66,0,0,1-.37,1.44,3.14,3.14,0,0,1-1,1,4,4,0,0,1-1.32.55,6.51,6.51,0,0,1-1.45.16,6.07,6.07,0,0,1-1.67-.21,4.13,4.13,0,0,1-1.38-.67,3.22,3.22,0,0,1-.94-1.15,3.71,3.71,0,0,1-.34-1.65h1.32a2.22,2.22,0,0,0,.26,1.13,2.18,2.18,0,0,0,.67.8,3,3,0,0,0,1,.45,4.37,4.37,0,0,0,1.15.15,5,5,0,0,0,.94-.09,2.59,2.59,0,0,0,.86-.31,1.56,1.56,0,0,0,.85-1.51,1.27,1.27,0,0,0-.28-.88,1.93,1.93,0,0,0-.77-.55,5.17,5.17,0,0,0-1.07-.35l-1.23-.27q-.63-.15-1.23-.33a4.43,4.43,0,0,1-1.08-.48,2.27,2.27,0,0,1-.76-.78,2.22,2.22,0,0,1-.29-1.2,2.78,2.78,0,0,1,1.18-2.34,4.1,4.1,0,0,1,1.22-.55,5.43,5.43,0,0,1,1.4-.18,5.63,5.63,0,0,1,1.51.19,3.08,3.08,0,0,1,1.21.61,2.85,2.85,0,0,1,.82,1,3.77,3.77,0,0,1,.33,1.5h-1.32A2.19,2.19,0,0,0,323.59,385.4Z" transform="translate(-57.95 -67.06)"/></svg>